HIERARCHY
ROOT Joint0
{
  OFFSET 0.0000 0.0000 1.0000
  CHANNELS 6 Xposition Yposition Zposition Zrotation Xrotation Yrotation
  JOINT Joint1
  {
    OFFSET 0.0811 -0.0899 -0.0114
    CHANNELS 3 Zrotation Xrotation Yrotation
    JOINT Joint4
    {
      OFFSET 0.0297 -0.3677 -0.0039
      CHANNELS 3 Zrotation Xrotation Yrotation
      JOINT Joint7
      {
        OFFSET -0.0120 -0.3841 -0.0490
        CHANNELS 3 Zrotation Xrotation Yrotation
        JOINT Joint10
        {
          OFFSET 0.0247 -0.0555 0.1226
          CHANNELS 3 Zrotation Xrotation Yrotation
          End Site
          {
            OFFSET 0.0247 -0.0555 0.1226
          }
        }
      }
    }
  }
  JOINT Joint2
  {
    OFFSET -0.0773 -0.0878 -0.0084
    CHANNELS 3 Zrotation Xrotation Yrotation
    JOINT Joint5
    {
      OFFSET -0.0344 -0.3716 -0.0062
      CHANNELS 3 Zrotation Xrotation Yrotation
      JOINT Joint8
      {
        OFFSET 0.0139 -0.3835 -0.0484
        CHANNELS 3 Zrotation Xrotation Yrotation
        JOINT Joint11
        {
          OFFSET -0.0293 -0.0469 0.1263
          CHANNELS 3 Zrotation Xrotation Yrotation
          End Site
          {
            OFFSET -0.0293 -0.0469 0.1263
          }
        }
      }
    }
  }
  JOINT Joint3
  {
    OFFSET -0.0027 0.1037 -0.0232
    CHANNELS 3 Zrotation Xrotation Yrotation
    JOINT Joint6
    {
      OFFSET 0.0030 0.1296 -0.0027
      CHANNELS 3 Zrotation Xrotation Yrotation
      JOINT Joint9
      {
        OFFSET 0.0015 0.0533 0.0332
        CHANNELS 3 Zrotation Xrotation Yrotation
        JOINT Joint12
        {
          OFFSET -0.0004 0.2283 -0.0600
          CHANNELS 3 Zrotation Xrotation Yrotation
          JOINT Joint15
          {
            OFFSET 0.0048 0.0641 0.0558
            CHANNELS 3 Zrotation Xrotation Yrotation
            End Site
            {
              OFFSET 0.0048 0.0641 0.0558
            }
          }
        }
        JOINT Joint13
        {
          OFFSET 0.0787 0.1275 -0.0430
          CHANNELS 3 Zrotation Xrotation Yrotation
          JOINT Joint16
          {
            OFFSET 0.0914 0.0355 -0.0086
            CHANNELS 3 Zrotation Xrotation Yrotation
            JOINT Joint18
            {
              OFFSET 0.2512 -0.0141 -0.0294
              CHANNELS 3 Zrotation Xrotation Yrotation
              JOINT Joint20
              {
                OFFSET 0.2431 0.0092 0.0027
                CHANNELS 3 Zrotation Xrotation Yrotation
                JOINT Joint22
                {
                  OFFSET 0.1053 -0.0108 0.0234
                  CHANNELS 3 Zrotation Xrotation Yrotation
                  JOINT Joint23
                  {
                    OFFSET 0.0332 0.0042 0.0030
                    CHANNELS 3 Zrotation Xrotation Yrotation
                    JOINT Joint24
                    {
                      OFFSET 0.0234 -0.0009 0.0005
                      CHANNELS 3 Zrotation Xrotation Yrotation
                      End Site
                      {
                        OFFSET 0.0234 -0.0009 0.0005
                      }
                    }
                  }
                }
                JOINT Joint25
                {
                  OFFSET 0.1126 -0.0078 -0.0002
                  CHANNELS 3 Zrotation Xrotation Yrotation
                  JOINT Joint26
                  {
                    OFFSET 0.0317 0.0021 -0.0047
                    CHANNELS 3 Zrotation Xrotation Yrotation
                    JOINT Joint27
                    {
                      OFFSET 0.0246 -0.0008 -0.0039
                      CHANNELS 3 Zrotation Xrotation Yrotation
                      End Site
                      {
                        OFFSET 0.0246 -0.0008 -0.0039
                      }
                    }
                  }
                }
                JOINT Joint28
                {
                  OFFSET 0.0860 -0.0168 -0.0403
                  CHANNELS 3 Zrotation Xrotation Yrotation
                  JOINT Joint29
                  {
                    OFFSET 0.0158 -0.0006 -0.0114
                    CHANNELS 3 Zrotation Xrotation Yrotation
                    JOINT Joint30
                    {
                      OFFSET 0.0161 -0.0011 -0.0109
                      CHANNELS 3 Zrotation Xrotation Yrotation
                      End Site
                      {
                        OFFSET 0.0161 -0.0011 -0.0109
                      }
                    }
                  }
                }
                JOINT Joint31
                {
                  OFFSET 0.0999 -0.0111 -0.0238
                  CHANNELS 3 Zrotation Xrotation Yrotation
                  JOINT Joint32
                  {
                    OFFSET 0.0286 0.0023 -0.0053
                    CHANNELS 3 Zrotation Xrotation Yrotation
                    JOINT Joint33
                    {
                      OFFSET 0.0234 -0.0009 -0.0074
                      CHANNELS 3 Zrotation Xrotation Yrotation
                      End Site
                      {
                        OFFSET 0.0234 -0.0009 -0.0074
                      }
                    }
                  }
                }
                JOINT Joint34
                {
                  OFFSET 0.0426 -0.0219 0.0277
                  CHANNELS 3 Zrotation Xrotation Yrotation
                  JOINT Joint35
                  {
                    OFFSET 0.0185 0.0008 0.0246
                    CHANNELS 3 Zrotation Xrotation Yrotation
                    JOINT Joint36
                    {
                      OFFSET 0.0221 -0.0048 0.0152
                      CHANNELS 3 Zrotation Xrotation Yrotation
                      End Site
                      {
                        OFFSET 0.0221 -0.0048 0.0152
                      }
                    }
                  }
                }
              }
            }
          }
        }
        JOINT Joint14
        {
          OFFSET -0.0815 0.1251 -0.0492
          CHANNELS 3 Zrotation Xrotation Yrotation
          JOINT Joint17
          {
            OFFSET -0.0975 0.0385 -0.0099
            CHANNELS 3 Zrotation Xrotation Yrotation
            JOINT Joint19
            {
              OFFSET -0.2546 -0.0159 -0.0229
              CHANNELS 3 Zrotation Xrotation Yrotation
              JOINT Joint21
              {
                OFFSET -0.2519 0.0079 0.0007
                CHANNELS 3 Zrotation Xrotation Yrotation
                JOINT Joint37
                {
                  OFFSET -0.1043 -0.0103 0.0246
                  CHANNELS 3 Zrotation Xrotation Yrotation
                  JOINT Joint38
                  {
                    OFFSET -0.0341 0.0034 0.0025
                    CHANNELS 3 Zrotation Xrotation Yrotation
                    JOINT Joint39
                    {
                      OFFSET -0.0236 -0.0015 -0.0003
                      CHANNELS 3 Zrotation Xrotation Yrotation
                      End Site
                      {
                        OFFSET -0.0236 -0.0015 -0.0003
                      }
                    }
                  }
                }
                JOINT Joint40
                {
                  OFFSET -0.1123 -0.0074 -0.0003
                  CHANNELS 3 Zrotation Xrotation Yrotation
                  JOINT Joint41
                  {
                    OFFSET -0.0322 0.0016 -0.0048
                    CHANNELS 3 Zrotation Xrotation Yrotation
                    JOINT Joint42
                    {
                      OFFSET -0.0245 -0.0012 -0.0045
                      CHANNELS 3 Zrotation Xrotation Yrotation
                      End Site
                      {
                        OFFSET -0.0245 -0.0012 -0.0045
                      }
                    }
                  }
                }
                JOINT Joint43
                {
                  OFFSET -0.0863 -0.0161 -0.0419
                  CHANNELS 3 Zrotation Xrotation Yrotation
                  JOINT Joint44
                  {
                    OFFSET -0.0162 -0.0001 -0.0120
                    CHANNELS 3 Zrotation Xrotation Yrotation
                    JOINT Joint45
                    {
                      OFFSET -0.0165 -0.0007 -0.0110
                      CHANNELS 3 Zrotation Xrotation Yrotation
                      End Site
                      {
                        OFFSET -0.0165 -0.0007 -0.0110
                      }
                    }
                  }
                }
                JOINT Joint46
                {
                  OFFSET -0.0999 -0.0107 -0.0248
                  CHANNELS 3 Zrotation Xrotation Yrotation
                  JOINT Joint47
                  {
                    OFFSET -0.0290 0.0016 -0.0050
                    CHANNELS 3 Zrotation Xrotation Yrotation
                    JOINT Joint48
                    {
                      OFFSET -0.0236 -0.0012 -0.0076
                      CHANNELS 3 Zrotation Xrotation Yrotation
                      End Site
                      {
                        OFFSET -0.0236 -0.0012 -0.0076
                      }
                    }
                  }
                }
                JOINT Joint49
                {
                  OFFSET -0.0397 -0.0214 0.0306
                  CHANNELS 3 Zrotation Xrotation Yrotation
                  JOINT Joint50
                  {
                    OFFSET -0.0191 0.0007 0.0247
                    CHANNELS 3 Zrotation Xrotation Yrotation
                    JOINT Joint51
                    {
                      OFFSET -0.0231 -0.0056 0.0141
                      CHANNELS 3 Zrotation Xrotation Yrotation
                      End Site
                      {
                        OFFSET -0.0231 -0.0056 0.0141
                      }
                    }
                  }
                }
              }
            }
          }
        }
      }
    }
  }
}
MOTION
Frames: 4
Frame Time: 0.0333
0.0000 0.0000 0.0000 -88.4255 60.4476 -1.9481 12.9887 -44.2167 3.1908 -54.7583 72.3828 50.1245 6.9838 -12.3589 9.8742 0.0000 0.0000 0.0000 -15.0612 -49.3329 -4.9658 65.7783 80.5873 -67.0045 -2.0426 -13.8213 -8.5110 0.0000 0.0000 0.0000 -6.2782 42.0071 3.8232 2.7701 -5.3905 -3.3479 -1.0998 -3.9068 -2.7057 0.1687 -5.1702 -12.4296 8.8838 17.4543 -24.1678 -33.6673 9.8347 -23.2788 -37.2146 7.3706 -19.4684 13.8561 -5.6789 -39.4175 13.6973 6.6162 -3.3998 -24.0738 5.7061 3.7140 -43.3124 7.0195 -1.1858 -11.0629 -4.9918 -5.7123 -30.3189 -7.2093 1.0370 -40.4542 -8.6380 0.1210 -19.3843 -0.1920 -5.3744 -40.1428 -20.5934 -19.4386 -29.8046 -10.8081 -6.7641 -5.4446 -21.0010 -4.5092 -36.8726 -6.0602 -7.1223 -37.6129 -15.1557 -8.6470 -22.1659 -8.4174 -9.3293 -16.0939 46.7949 23.9080 3.7329 -28.5753 2.5054 -18.3193 29.8224 7.6334 36.0887 10.5110 28.1281 38.6665 12.1318 19.9456 -19.1075 -3.9045 37.8949 -6.7534 9.8815 4.2054 24.0738 5.7061 -3.7140 43.3124 7.0195 1.1858 11.0629 -4.9918 5.7123 30.3189 -7.2093 -1.0370 40.4542 -8.6380 -0.1210 19.3843 -0.1920 5.3744 40.1428 -20.5934 19.4386 29.8046 -10.8081 6.7641 5.4446 -21.0010 4.5092 36.8726 -6.0602 7.1223 37.6129 -15.1557 8.6470 22.1659 -8.4174 9.3293 16.0939 46.7949 -23.9080 -3.7329 -28.5753 -2.5054 18.3193 29.8224 -7.6334
0.0000 0.0000 0.0000 -90.2570 62.1951 -0.9633 15.6025 -46.2117 4.2661 -58.5932 72.0533 54.0988 7.2729 -12.5866 9.4356 0.0000 0.0000 0.0000 -14.1115 -51.6302 -4.0412 70.6974 79.9238 -71.7565 -2.5856 -13.7460 -8.6930 0.0000 0.0000 0.0000 -5.2513 38.7796 2.7284 3.1205 -4.5500 -2.5634 -1.2158 -3.8949 -2.3216 -0.0047 -4.2171 -12.3794 8.5219 16.9513 -23.3702 -34.4044 10.2726 -22.0967 -37.5608 7.4929 -19.4636 14.1036 -7.1121 -39.5222 13.0349 4.7753 -2.5877 -24.0738 5.7061 3.7140 -43.3124 7.0195 -1.1858 -11.0629 -4.9918 -5.7123 -30.3189 -7.2093 1.0370 -40.4542 -8.6380 0.1210 -19.3843 -0.1920 -5.3744 -40.1428 -20.5934 -19.4386 -29.8046 -10.8081 -6.7641 -5.4446 -21.0010 -4.5092 -36.8726 -6.0602 -7.1223 -37.6129 -15.1557 -8.6470 -22.1659 -8.4174 -9.3293 -16.0939 46.7949 23.9080 3.7329 -28.5753 2.5054 -18.3193 29.8224 7.6334 35.9194 11.4082 27.1044 38.1805 11.8434 20.2279 -19.0278 -4.5234 37.9764 -6.5033 7.5524 4.2468 24.0738 5.7061 -3.7140 43.3124 7.0195 1.1858 11.0629 -4.9918 5.7123 30.3189 -7.2093 -1.0370 40.4542 -8.6380 -0.1210 19.3843 -0.1920 5.3744 40.1428 -20.5934 19.4386 29.8046 -10.8081 6.7641 5.4446 -21.0010 4.5092 36.8726 -6.0602 7.1223 37.6129 -15.1557 8.6470 22.1659 -8.4174 9.3293 16.0939 46.7949 -23.9080 -3.7329 -28.5753 -2.5054 18.3193 29.8224 -7.6334
0.0000 0.0000 0.0000 -91.3326 62.0124 -0.4868 16.5991 -45.9970 4.7188 -59.2342 71.9794 54.6717 7.1621 -12.5812 9.5391 0.0000 0.0000 0.0000 -13.2936 -51.5158 -3.5381 70.4707 79.9461 -71.2681 -2.6969 -13.5854 -8.8050 0.0000 0.0000 0.0000 -5.1643 37.9966 1.3535 3.7858 -3.8746 -2.3175 -0.8853 -3.2004 -0.9920 -0.4920 -4.0736 -12.3464 8.0772 16.1372 -21.9241 -35.1338 9.9213 -21.3729 -38.1182 7.0896 -19.2046 13.7394 -10.1093 -39.4378 12.7524 1.9680 -2.1782 -24.0738 5.7061 3.7140 -43.3124 7.0195 -1.1858 -11.0629 -4.9918 -5.7123 -30.3189 -7.2093 1.0370 -40.4542 -8.6380 0.1210 -19.3843 -0.1920 -5.3744 -40.1428 -20.5934 -19.4386 -29.8046 -10.8081 -6.7641 -5.4446 -21.0010 -4.5092 -36.8726 -6.0602 -7.1223 -37.6129 -15.1557 -8.6470 -22.1659 -8.4174 -9.3293 -16.0939 46.7949 23.9080 3.7329 -28.5753 2.5054 -18.3193 29.8224 7.6334 35.0373 11.7601 27.1701 37.6047 10.9418 20.2908 -17.9733 -6.8767 37.3970 -6.3465 4.9416 4.8081 24.0738 5.7061 -3.7140 43.3124 7.0195 1.1858 11.0629 -4.9918 5.7123 30.3189 -7.2093 -1.0370 40.4542 -8.6380 -0.1210 19.3843 -0.1920 5.3744 40.1428 -20.5934 19.4386 29.8046 -10.8081 6.7641 5.4446 -21.0010 4.5092 36.8726 -6.0602 7.1223 37.6129 -15.1557 8.6470 22.1659 -8.4174 9.3293 16.0939 46.7949 -23.9080 -3.7329 -28.5753 -2.5054 18.3193 29.8224 -7.6334
0.0000 0.0000 0.0000 -91.9783 61.7814 -0.5109 17.4138 -45.6167 5.3016 -59.5029 71.9815 54.9326 6.9223 -12.6969 9.6015 0.0000 0.0000 0.0000 -12.5166 -51.3705 -2.8729 70.3503 80.0702 -70.9958 -2.6318 -13.4421 -8.8186 0.0000 0.0000 0.0000 -4.4165 37.8061 0.9549 3.4700 -3.7590 -1.6936 -1.0016 -2.7909 -0.9550 -0.6184 -4.3433 -12.2669 7.8483 15.8724 -20.6472 -35.6143 9.5012 -19.5908 -38.6070 6.3503 -18.5846 12.7222 -13.8850 -38.9217 12.0351 -2.9611 -1.7767 -24.0738 5.7061 3.7140 -43.3124 7.0195 -1.1858 -11.0629 -4.9918 -5.7123 -30.3189 -7.2093 1.0370 -40.4542 -8.6380 0.1210 -19.3843 -0.1920 -5.3744 -40.1428 -20.5934 -19.4386 -29.8046 -10.8081 -6.7641 -5.4446 -21.0010 -4.5092 -36.8726 -6.0602 -7.1223 -37.6129 -15.1557 -8.6470 -22.1659 -8.4174 -9.3293 -16.0939 46.7949 23.9080 3.7329 -28.5753 2.5054 -18.3193 29.8224 7.6334 35.1258 11.2137 25.5405 37.3293 9.9437 19.4584 -16.6403 -9.9733 36.0780 -4.8676 1.2053 5.5402 24.0738 5.7061 -3.7140 43.3124 7.0195 1.1858 11.0629 -4.9918 5.7123 30.3189 -7.2093 -1.0370 40.4542 -8.6380 -0.1210 19.3843 -0.1920 5.3744 40.1428 -20.5934 19.4386 29.8046 -10.8081 6.7641 5.4446 -21.0010 4.5092 36.8726 -6.0602 7.1223 37.6129 -15.1557 8.6470 22.1659 -8.4174 9.3293 16.0939 46.7949 -23.9080 -3.7329 -28.5753 -2.5054 18.3193 29.8224 -7.6334
